<?xml version="1.0" encoding="utf-8"?>
<!-- Generator: Adobe Illustrator 26.0.2, SVG Export Plug-In . SVG Version: 6.00 Build 0)  -->
<svg version="1.1" id="Layer_1" xmlns="http://www.w3.org/2000/svg" xmlns:xlink="http://www.w3.org/1999/xlink" x="0px" y="0px"
	 viewBox="0 0 571 225.9" style="enable-background:new 0 0 571 225.9;" xml:space="preserve">
<style type="text/css">
	.st0{fill:#FFFFFF;}
</style>
<g id="Layer_2_00000100378206603095868770000016593868320907492522_">
	<g id="Layer_1-2">
		<path class="st0" d="M202.4,187.4H14.9c-8.2,0-14.9-6.7-14.9-14.9V14.9C0,6.7,6.7,0,14.9,0h248.7c8.2,0,14.8,6.7,14.8,14.8
			c0,1.8-0.3,3.7-1,5.4l-61.3,157.5C214.2,183.6,208.6,187.5,202.4,187.4z"/>
		<path d="M80.7,61.3c-5.6,0-8.8-6.4-8.8-15.1c-1.9-1.4-5-1.9-7.5-1.9c-2.1-0.1-4.1,0.1-6.1,0.8c-1.9,0.8-3.7,1.9-5.1,3.4
			c-4.3,4.3-6.4,10.3-6.4,27.3c0,17.5,1.5,22.8,5.5,26.6c2.9,2.9,6.7,4.2,12.2,4.2c8.3,0,14.4-5.4,19.7-11.1
			c0.8-0.8,4.5,2.4,3.8,3.4c-7.1,9.5-15.6,14.1-25.2,14.1c-18.3-0.2-33-16-33-37.1c0-21.3,15.7-37.1,34.8-37.1
			c13,0,23.4,8,23.4,15.1c0,1-0.1,1.9-0.3,2.9c-0.3,0.9-0.8,1.7-1.4,2.4c-0.7,0.7-1.5,1.2-2.4,1.4C82.5,61.3,81.5,61.6,80.7,61.3z"
			/>
		<path d="M181,44.8c-1.3-4.3-6.7-6.9-13.5-4.7c-2.4,0.7-4.7,2-6.6,3.7c-1.9,1.7-3.4,3.8-4.5,6.1c-1.8-2.4-6.6-5.6-9.8-7.2
			c-4.6-2.2-9.6-3.4-14.8-3.4c-2.5,0-5.1,0.3-7.5,1l0,0c-4.5,1.1-8.7,3.2-12.4,6.1c-3.7,2.9-6.8,6.4-9.2,10.4l0,0
			c-1.2,2-2.2,4.2-2.9,6.4v0.2l-0.5,1.8v0.2c0,0.2-0.2,0.3-0.2,0.5l0,0c-0.9,3.5-1.4,7.1-1.3,10.7c0,21.3,15.1,37.1,33.2,37.1
			c5.4-0.1,10.8-1.6,15.4-4.5v7.1c0,17-2.1,22.9-6.4,27.3c-1.4,1.5-3.2,2.7-5.1,3.4c-2,0.7-4,1-6.1,0.8c-2.9,0-5.9-0.3-7.5-1.9
			c0-1,0-2-0.2-3c-0.6-6.9-3.7-11.9-8.8-11.9c-1,0-2,0.2-2.9,0.5c-0.9,0.3-1.7,0.8-2.4,1.4c-0.7,0.7-1.2,1.5-1.4,2.4
			c-0.4,0.9-0.5,1.9-0.3,2.9c0,7.1,10.4,15.1,23.3,15.2c0.8,0,1.6,0,2.4-0.2h0.6c0.8,0,1.9-0.3,2.7-0.3h0.5c0.8-0.2,1.8-0.3,2.4-0.5
			l0.6-0.2c0.8-0.3,1.8-0.5,2.6-0.8h0.2c3.3-1.3,6.3-3.2,8.8-5.6c2.6-2.5,4.7-5.4,6.3-8.7c3.2-6.9,4.7-14.4,4.5-22V55.5
			c0.3-1.7,1-3.2,2.1-4.5c1-1.3,2.3-2.3,3.9-2.9c1.8,5.3,6.4,8,10.8,6.6C180.5,53.6,182.2,49.6,181,44.8z M132,107.2
			c-5.5,0-9.2-1.3-12.2-4.2c-3.8-3.8-5.5-9.1-5.5-26.6c0-17,2.1-22.9,6.4-27.3c1.4-1.5,3.2-2.7,5.1-3.4c1.9-0.7,4-1,6.1-0.8h1.3
			c2.1,0.1,4.2,0.7,6.1,1.8l0.3,0.2c1.2,0.6,2.2,1.4,3.1,2.4c1.4,1.4,2.6,3.1,3.4,5l-0.3,47.7C141.9,105.1,137,106.9,132,107.2z"/>
		<path d="M232.1,24.7l-58.2,144.9h-9.5l58.9-144.9H232.1z"/>
		<g>
			<path class="st0" d="M16.1,217.7c-0.2,0.4-0.5,0.7-0.9,1c-0.4,0.4-0.9,0.8-1.4,1.1c-0.6,0.4-1.2,0.6-1.9,0.9
				c-0.8,0.2-1.6,0.3-2.4,0.3c-1.2,0-2.3-0.2-3.4-0.6c-1-0.4-1.9-1-2.6-1.8c-0.7-0.8-1.3-1.7-1.7-2.8c-0.8-2.2-0.8-4.7,0-6.9
				c0.4-1,1-2,1.7-2.8c0.7-0.8,1.6-1.4,2.6-1.9c1.1-0.5,2.2-0.7,3.4-0.7c0.8,0,1.6,0.1,2.4,0.3c1.2,0.3,2.3,1,3.2,1.9
				c0.3,0.3,0.6,0.7,0.9,1.1l-1.7,1.4c-0.2-0.3-0.5-0.6-0.7-0.9c-0.3-0.3-0.6-0.6-1-0.8c-0.4-0.3-0.9-0.5-1.3-0.6
				c-0.6-0.2-1.1-0.3-1.7-0.2c-0.8,0-1.7,0.2-2.5,0.5c-0.7,0.3-1.3,0.8-1.8,1.4c-0.5,0.6-0.9,1.3-1.2,2.1c-0.3,0.8-0.4,1.7-0.4,2.6
				c0,0.9,0.1,1.7,0.4,2.5c0.3,0.8,0.6,1.5,1.2,2.1c0.5,0.6,1.1,1,1.8,1.4c0.8,0.3,1.6,0.5,2.4,0.5c0.7,0,1.3-0.1,1.9-0.3
				c0.5-0.2,0.9-0.4,1.4-0.7c0.3-0.2,0.6-0.5,0.9-0.8c0.2-0.3,0.4-0.5,0.6-0.7L16.1,217.7z"/>
			<path class="st0" d="M25.8,219.2c-0.4,0.6-1,1-1.7,1.3c-0.7,0.3-1.4,0.4-2.2,0.4c-0.5,0-1-0.1-1.4-0.2c-0.5-0.1-0.9-0.3-1.3-0.6
				c-0.4-0.3-0.7-0.7-0.9-1.1c-0.3-0.5-0.4-1.1-0.4-1.7c0-1.1,0.4-2.3,1.3-3c1.1-0.8,2.5-1.2,3.8-1.1c0.3,0,0.5,0,0.8,0l0.9,0.1h0.7
				c0.1,0,0.3,0,0.4,0.1V213c0.1-0.7-0.2-1.4-0.8-1.9c-0.6-0.4-1.4-0.6-2.1-0.6c-0.7,0-1.4,0.1-2.1,0.4c-0.5,0.2-0.9,0.4-1.3,0.7
				l-1-1.5c0.2-0.2,0.5-0.4,0.7-0.5c0.3-0.2,0.7-0.3,1-0.5c0.4-0.2,0.9-0.3,1.3-0.4c0.6-0.1,1.1-0.1,1.7-0.1
				c1.3-0.1,2.5,0.3,3.5,1.1c0.9,0.8,1.3,1.9,1.3,3.1v7.2c0,0.2,0,0.4,0,0.6h-2.1L25.8,219.2z M25.8,215.2l-0.4-0.1l-0.7-0.1L24,215
				h-0.8c-0.5,0-1,0.1-1.5,0.2c-0.3,0.1-0.7,0.3-0.9,0.6c-0.2,0.2-0.4,0.5-0.5,0.8c-0.1,0.3-0.1,0.5-0.1,0.8c0,0.6,0.2,1.1,0.6,1.4
				c0.5,0.4,1.2,0.5,1.8,0.5c0.4,0,0.8-0.1,1.2-0.2c0.4-0.1,0.7-0.3,1-0.6c0.3-0.2,0.5-0.5,0.7-0.9c0.2-0.3,0.3-0.6,0.3-1
				L25.8,215.2z"/>
			<path class="st0" d="M31,220.6v-10.9c0-0.2,0-0.4,0-0.7h2.1l0.1,1.8c0.2-0.2,0.3-0.4,0.5-0.7c0.2-0.3,0.5-0.5,0.8-0.7
				c0.3-0.2,0.7-0.4,1.1-0.5c0.5-0.1,1-0.2,1.4-0.2c1.3-0.1,2.5,0.4,3.4,1.3c0.8,1,1.2,2.3,1.1,3.6v7h-2.2v-6.8
				c0.1-0.9-0.2-1.7-0.7-2.4c-0.5-0.5-1.3-0.8-2-0.8c-1.1,0-2,0.5-2.6,1.4c-0.3,0.4-0.5,0.9-0.6,1.4c-0.1,0.5-0.2,1.1-0.2,1.7v5.4
				H31z"/>
			<path class="st0" d="M51.8,219.2c-0.4,0.6-1,1-1.7,1.3c-0.7,0.3-1.4,0.4-2.2,0.4c-0.5,0-1-0.1-1.4-0.2c-0.5-0.1-0.9-0.3-1.3-0.6
				c-0.4-0.3-0.7-0.7-1-1.1c-0.3-0.5-0.4-1.1-0.4-1.7c0-1.1,0.4-2.3,1.3-3c1.1-0.8,2.4-1.2,3.8-1.1c0.3,0,0.5,0,0.8,0l0.8,0.1h0.7
				c0.1,0,0.3,0,0.4,0.1V213c0.1-0.7-0.2-1.4-0.8-1.9c-0.6-0.4-1.4-0.6-2.1-0.6c-0.7,0-1.4,0.1-2.1,0.4c-0.5,0.2-0.9,0.4-1.3,0.7
				l-1-1.5c0.2-0.2,0.5-0.4,0.7-0.5c0.3-0.2,0.7-0.3,1-0.5c0.4-0.2,0.9-0.3,1.3-0.4c0.6-0.1,1.1-0.1,1.7-0.1
				c1.3-0.1,2.5,0.3,3.5,1.1c0.9,0.8,1.4,1.9,1.3,3.1v7.2c0,0.2,0,0.4,0,0.6h-2.1L51.8,219.2z M51.8,215.2l-0.4-0.1l-0.7-0.1L50,215
				h-0.8c-0.5,0-1,0.1-1.5,0.2c-0.3,0.1-0.7,0.3-0.9,0.6c-0.2,0.2-0.4,0.5-0.5,0.8c-0.1,0.3-0.1,0.5-0.1,0.8c0,0.6,0.2,1.1,0.7,1.4
				c0.5,0.4,1.2,0.5,1.8,0.5c0.4,0,0.8-0.1,1.2-0.2c0.4-0.1,0.7-0.3,1-0.6c0.3-0.2,0.5-0.5,0.7-0.9c0.2-0.3,0.3-0.6,0.3-1
				L51.8,215.2z"/>
			<path class="st0" d="M67.1,219c-0.5,0.6-1.2,1.1-1.9,1.4c-0.8,0.4-1.7,0.6-2.6,0.5c-0.9,0-1.7-0.1-2.5-0.5
				c-1.5-0.6-2.6-1.7-3.1-3.2c-0.3-0.8-0.4-1.6-0.4-2.5c0-0.8,0.1-1.6,0.5-2.4c0.3-0.7,0.7-1.4,1.3-2c0.5-0.6,1.2-1,1.9-1.3
				c0.8-0.3,1.6-0.5,2.5-0.5c0.9,0,1.8,0.2,2.6,0.5c0.7,0.3,1.4,0.8,1.9,1.4l-1.5,1.5c-0.3-0.4-0.8-0.8-1.3-1
				c-0.6-0.3-1.2-0.4-1.8-0.4c-0.6,0-1.1,0.1-1.6,0.3c-0.5,0.2-0.9,0.5-1.2,0.9c-0.3,0.4-0.6,0.9-0.8,1.4c-0.2,0.5-0.3,1-0.3,1.6
				c0,0.5,0.1,1.1,0.3,1.6c0.2,0.5,0.4,1,0.8,1.4c0.7,0.8,1.7,1.3,2.8,1.3c0.6,0,1.3-0.1,1.8-0.4c0.5-0.2,1-0.6,1.3-1L67.1,219z"/>
			<path class="st0" d="M78.7,219c-1.1,1.3-2.8,2-4.5,2c-0.9,0-1.7-0.1-2.5-0.5c-1.5-0.6-2.6-1.7-3.1-3.2c-0.3-0.8-0.4-1.6-0.4-2.5
				c0-0.8,0.1-1.6,0.4-2.4c0.3-0.7,0.7-1.4,1.3-2c0.5-0.6,1.2-1,1.9-1.3c0.8-0.3,1.6-0.5,2.5-0.5c0.9,0,1.8,0.2,2.6,0.5
				c0.7,0.3,1.4,0.8,1.9,1.4l-1.5,1.4c-0.3-0.4-0.8-0.8-1.3-1c-0.6-0.3-1.2-0.4-1.8-0.4c-0.6,0-1.1,0.1-1.6,0.3
				c-0.5,0.2-0.9,0.5-1.2,0.9c-0.3,0.4-0.6,0.9-0.8,1.4c-0.2,0.5-0.3,1-0.3,1.6c0,0.5,0.1,1.1,0.3,1.6c0.2,0.5,0.4,1,0.8,1.4
				c0.7,0.8,1.7,1.3,2.8,1.3c0.6,0,1.3-0.1,1.8-0.4c0.5-0.2,1-0.6,1.3-1L78.7,219z"/>
			<path class="st0" d="M85.8,221c-0.8,0-1.7-0.2-2.5-0.5c-0.7-0.3-1.4-0.8-1.9-1.3c-0.5-0.6-1-1.2-1.3-1.9
				c-0.3-0.8-0.5-1.6-0.5-2.4c0-0.8,0.1-1.6,0.5-2.4c0.3-0.7,0.7-1.4,1.3-2c0.6-0.6,1.2-1,1.9-1.3c0.8-0.3,1.6-0.5,2.5-0.5
				c1.6,0,3.2,0.6,4.4,1.8c1.1,1.2,1.8,2.7,1.8,4.3c0,0.8-0.2,1.6-0.5,2.4c-0.3,0.7-0.7,1.4-1.3,1.9c-0.6,0.6-1.3,1-2,1.3
				C87.4,220.8,86.6,221,85.8,221z M85.8,219c0.6,0,1.1-0.1,1.6-0.4c0.5-0.2,0.9-0.6,1.2-1c0.3-0.4,0.6-0.9,0.8-1.4
				c0.2-0.5,0.3-1,0.3-1.6c0-0.5-0.1-1-0.3-1.5c-0.2-0.5-0.4-1-0.8-1.4c-0.3-0.4-0.8-0.8-1.2-1c-0.5-0.2-1.1-0.4-1.6-0.4
				c-0.6,0-1.1,0.1-1.6,0.4c-0.5,0.2-0.9,0.6-1.2,0.9c-0.3,0.4-0.6,0.9-0.8,1.3c-0.2,0.5-0.3,1-0.3,1.6c0,0.5,0.1,1.1,0.3,1.6
				c0.2,0.5,0.4,1,0.8,1.4c0.3,0.4,0.7,0.8,1.2,1C84.7,218.9,85.2,219,85.8,219z"/>
			<path class="st0" d="M94.5,220.6v-10.9c0-0.1,0-0.4,0-0.7h2.1l0.1,1.9c0.2-0.2,0.3-0.5,0.5-0.7c0.2-0.3,0.5-0.5,0.8-0.7
				c0.3-0.2,0.7-0.4,1.1-0.5c0.5-0.1,0.9-0.2,1.4-0.2c0.2,0,0.5,0,0.7,0c0.2,0,0.4,0.1,0.6,0.1l-0.5,2.1c-0.4-0.1-0.8-0.2-1.2-0.2
				c-0.9,0-1.8,0.3-2.4,1c-0.3,0.3-0.5,0.7-0.7,1.1c-0.2,0.4-0.3,0.9-0.3,1.4v6.1L94.5,220.6z"/>
			<path class="st0" d="M111.3,219.2c-0.1,0.1-0.2,0.3-0.4,0.5c-0.2,0.2-0.5,0.4-0.8,0.6c-0.3,0.2-0.7,0.4-1.1,0.5
				c-0.5,0.2-1,0.2-1.5,0.2c-0.7,0-1.4-0.2-2-0.4c-0.6-0.3-1.2-0.7-1.6-1.2c-0.5-0.5-0.9-1.2-1.1-1.9c-0.3-0.8-0.4-1.6-0.4-2.5
				c0-1,0.2-1.9,0.6-2.8c0.3-0.7,0.8-1.4,1.5-1.9c0.6-0.5,1.2-0.9,1.9-1.1c1.2-0.4,2.4-0.5,3.6-0.1c0.5,0.1,0.9,0.3,1.4,0.6V204h2.2
				v15.9c0,0.2,0,0.5,0,0.7h-2.2L111.3,219.2z M111.3,211.6c-0.3-0.3-0.7-0.5-1.2-0.6c-0.5-0.2-1.1-0.3-1.7-0.2
				c-0.5,0-1,0.1-1.5,0.3c-0.5,0.2-0.9,0.5-1.2,0.9c-0.4,0.4-0.6,0.8-0.8,1.4c-0.2,0.6-0.3,1.2-0.3,1.8c0,0.5,0.1,1.1,0.2,1.6
				c0.1,0.5,0.3,0.9,0.6,1.3c0.3,0.4,0.6,0.7,1,0.9c0.5,0.2,1,0.3,1.5,0.3c0.5,0,1-0.1,1.5-0.3c0.4-0.2,0.7-0.5,1-0.8
				c0.3-0.3,0.4-0.7,0.6-1.1c0.1-0.3,0.2-0.7,0.2-1.1L111.3,211.6z"/>
			<path class="st0" d="M130,212.2h5.8v6.6c-0.3,0.3-0.7,0.6-1.1,0.8c-0.4,0.3-0.9,0.5-1.4,0.7c-0.6,0.2-1.2,0.4-1.8,0.5
				c-0.7,0.1-1.5,0.2-2.2,0.2c-1.2,0-2.4-0.2-3.5-0.7c-2-0.8-3.6-2.5-4.4-4.6c-0.4-1.1-0.6-2.3-0.6-3.5c0-1.2,0.2-2.3,0.6-3.4
				c0.4-1,1-2,1.7-2.8c0.7-0.8,1.6-1.4,2.6-1.9c1.8-0.8,3.9-0.9,5.8-0.4c0.6,0.2,1.3,0.5,1.8,0.8c0.5,0.3,0.9,0.6,1.3,1.1
				c0.3,0.3,0.6,0.7,0.9,1.1l-1.7,1.4c-0.2-0.3-0.5-0.6-0.7-0.9c-0.3-0.3-0.6-0.6-1-0.8c-0.4-0.2-0.8-0.4-1.2-0.6
				c-0.5-0.2-1.1-0.3-1.7-0.2c-0.9,0-1.7,0.2-2.5,0.5c-0.7,0.3-1.3,0.8-1.9,1.4c-0.5,0.6-0.9,1.3-1.2,2.1c-0.3,0.8-0.4,1.7-0.4,2.6
				c0,0.9,0.1,1.8,0.4,2.6c0.3,0.8,0.7,1.5,1.3,2.1c0.5,0.6,1.2,1,1.9,1.4c0.8,0.3,1.6,0.5,2.4,0.5c0.8,0,1.7-0.1,2.5-0.3
				c0.6-0.2,1.2-0.5,1.7-0.9v-3.4H130V212.2z"/>
			<path class="st0" d="M149.8,218.9c-0.1,0.2-0.3,0.3-0.6,0.6c-0.3,0.3-0.6,0.5-1,0.7c-0.5,0.2-1,0.4-1.5,0.6
				c-0.7,0.2-1.3,0.3-2,0.2c-0.8,0-1.7-0.1-2.5-0.4c-0.7-0.3-1.4-0.7-1.9-1.3c-0.6-0.6-1-1.3-1.2-2c-0.3-0.8-0.4-1.7-0.4-2.5
				c0-0.8,0.1-1.6,0.4-2.4c0.8-2.2,3-3.7,5.4-3.7c0.9,0,1.8,0.2,2.6,0.6c0.7,0.4,1.3,0.9,1.8,1.5c0.5,0.7,0.8,1.4,1,2.2
				c0.2,0.8,0.3,1.7,0.3,2.6h-9.2c0,1,0.5,1.9,1.2,2.5c0.4,0.3,0.8,0.6,1.2,0.8c0.5,0.2,0.9,0.3,1.4,0.3c0.8,0,1.7-0.1,2.4-0.5
				c0.5-0.2,1-0.6,1.4-1L149.8,218.9z M147.8,213.8c-0.1-0.8-0.4-1.7-0.9-2.3c-0.6-0.7-1.5-1-2.4-0.9c-0.5,0-1,0.1-1.4,0.3
				c-0.4,0.2-0.8,0.4-1.1,0.7c-0.3,0.3-0.5,0.6-0.7,1c-0.2,0.4-0.2,0.8-0.3,1.2L147.8,213.8z"/>
			<path class="st0" d="M152.5,220.6v-10.9c0-0.2,0-0.4,0-0.7h2.1l0.1,1.8c0.1-0.2,0.3-0.4,0.6-0.7c0.2-0.3,0.5-0.5,0.8-0.7
				c0.3-0.2,0.7-0.4,1.1-0.5c0.5-0.1,0.9-0.2,1.4-0.2c1.3-0.1,2.5,0.4,3.4,1.3c0.8,1,1.2,2.3,1.1,3.6v7h-2.2v-6.8
				c0.1-0.9-0.2-1.7-0.7-2.4c-0.5-0.5-1.3-0.8-2-0.8c-0.6,0-1.1,0.1-1.6,0.4c-0.4,0.3-0.7,0.6-1,1c-0.3,0.5-0.5,0.9-0.6,1.4
				c-0.1,0.5-0.2,1.1-0.2,1.7v5.4H152.5z"/>
			<path class="st0" d="M166,209h2.2v6.8c-0.1,0.8,0.2,1.7,0.7,2.4c0.5,0.5,1.2,0.8,1.9,0.7c0.6,0,1.1-0.1,1.6-0.4
				c0.4-0.3,0.7-0.6,1-1c0.3-0.4,0.5-0.9,0.6-1.4c0.1-0.5,0.2-1.1,0.2-1.7V209h2.2v10.9c0,0.2,0,0.5,0,0.7h-2.1l-0.1-1.7
				c-0.1,0.2-0.3,0.4-0.5,0.6c-0.2,0.2-0.5,0.5-0.8,0.6c-0.3,0.2-0.7,0.4-1.1,0.5c-0.5,0.1-0.9,0.2-1.4,0.2
				c-1.3,0.1-2.5-0.4-3.4-1.3c-0.8-1-1.2-2.3-1.1-3.6V209z"/>
			<path class="st0" d="M179.6,204.4h2.5v2.6h-2.5V204.4z M179.7,209h2.3v11.6h-2.2L179.7,209z"/>
			<path class="st0" d="M186.2,210.9h-2.1V209h2.1v-3.8h2.2v3.8h3.4v1.9h-3.4v5.7c-0.1,0.7,0.1,1.3,0.4,1.9c0.3,0.4,0.8,0.5,1.2,0.5
				c0.4,0,0.7-0.1,1.1-0.2c0.3-0.2,0.6-0.4,0.8-0.6l1,1.4c-0.4,0.4-0.9,0.8-1.5,1c-0.6,0.2-1.2,0.3-1.8,0.3c-1,0.1-2-0.3-2.7-1
				c-0.7-0.9-1-2-0.9-3.1L186.2,210.9z"/>
			<path class="st0" d="M194.3,223.5c0.2,0.2,0.4,0.3,0.6,0.4c0.2,0.1,0.5,0.2,0.8,0.2c0.2,0,0.5,0,0.7-0.2c0.2-0.1,0.4-0.3,0.5-0.5
				c0.2-0.3,0.3-0.6,0.4-0.9c0.1-0.3,0.3-0.7,0.5-1.2l0.3-0.8l-5.2-11.5h2.6l3.7,8.8l3.3-8.8h2.5l-4.6,11.3
				c-0.2,0.5-0.4,1.1-0.7,1.8c-0.2,0.6-0.5,1.2-0.8,1.8c-0.3,0.5-0.7,1-1.2,1.4c-0.5,0.4-1.2,0.6-1.8,0.6c-0.5,0-1-0.1-1.5-0.2
				c-0.4-0.1-0.7-0.4-1.1-0.6L194.3,223.5z"/>
		</g>
	</g>
</g>
</svg>
